<svg width="1200" height="700" viewBox="0 0 1200 700" fill="none" xmlns="http://www.w3.org/2000/svg">
  <defs>
    <linearGradient id="bg" x1="0" y1="0" x2="1200" y2="700" gradientUnits="userSpaceOnUse">
      <stop stop-color="#F8FBFF"/>
      <stop offset="1" stop-color="#F0FDFA"/>
    </linearGradient>
    <linearGradient id="adapter" x1="390" y1="180" x2="770" y2="460" gradientUnits="userSpaceOnUse">
      <stop stop-color="#1D4ED8"/>
      <stop offset="1" stop-color="#0F766E"/>
    </linearGradient>
  </defs>

  <rect x="10" y="10" width="1180" height="680" rx="34" fill="url(#bg)"/>

  <rect x="66" y="278" width="170" height="96" rx="24" fill="#FFFFFF" stroke="#CBD5E1"/>
  <text x="151" y="318" text-anchor="middle" fill="#0F172A" font-family="Aptos Display, Arial" font-size="24" font-weight="700">Запрос поиска</text>
  <text x="151" y="348" text-anchor="middle" fill="#5B6473" font-family="Aptos, Arial" font-size="16">город, бюджет, комнаты</text>

  <rect x="304" y="196" width="392" height="264" rx="32" fill="url(#adapter)"/>
  <text x="500" y="248" text-anchor="middle" fill="white" font-family="Aptos Display, Arial" font-size="30" font-weight="700">Единый адаптер</text>
  <text x="500" y="286" text-anchor="middle" fill="white" font-family="Aptos, Arial" font-size="16">локальная БД и live MCP под одним контрактом</text>

  <rect x="350" y="326" width="136" height="88" rx="22" fill="white" fill-opacity="0.14" stroke="white" stroke-opacity="0.3"/>
  <text x="418" y="360" text-anchor="middle" fill="white" font-family="Aptos Display, Arial" font-size="21" font-weight="700">Local DB</text>
  <text x="418" y="388" text-anchor="middle" fill="white" font-family="Aptos, Arial" font-size="14">fallback на SQLite</text>

  <rect x="514" y="326" width="136" height="88" rx="22" fill="white" fill-opacity="0.14" stroke="white" stroke-opacity="0.3"/>
  <text x="582" y="360" text-anchor="middle" fill="white" font-family="Aptos Display, Arial" font-size="21" font-weight="700">Cian MCP</text>
  <text x="582" y="388" text-anchor="middle" fill="white" font-family="Aptos, Arial" font-size="14">hosted tool через Apify</text>

  <rect x="760" y="204" width="360" height="248" rx="30" fill="#FFFFFF" stroke="#99F6E4"/>
  <text x="940" y="248" text-anchor="middle" fill="#0F766E" font-family="Aptos Display, Arial" font-size="30" font-weight="700">Нормализованная карточка</text>
  <text x="940" y="284" text-anchor="middle" fill="#5B6473" font-family="Aptos, Arial" font-size="18">единая форма shortlist для всех источников</text>

  <rect x="806" y="320" width="268" height="38" rx="19" fill="#ECFDF5"/>
  <text x="940" y="345" text-anchor="middle" fill="#0F766E" font-family="Menlo, Courier New, monospace" font-size="14">id, заголовок, цена, комнаты, ссылка</text>

  <rect x="806" y="374" width="268" height="38" rx="19" fill="#EFF6FF"/>
  <text x="940" y="399" text-anchor="middle" fill="#1D4ED8" font-family="Menlo, Courier New, monospace" font-size="14">notes: source=cian</text>

  <path d="M236 326H304" stroke="#94A3B8" stroke-width="4" stroke-linecap="round"/>
  <path d="M304 326L288 316V336L304 326Z" fill="#94A3B8"/>
  <path d="M696 326H760" stroke="#94A3B8" stroke-width="4" stroke-linecap="round"/>
  <path d="M760 326L744 316V336L760 326Z" fill="#94A3B8"/>

  <rect x="86" y="530" width="264" height="76" rx="22" fill="#FFFFFF" stroke="#CBD5E1"/>
  <text x="218" y="562" text-anchor="middle" fill="#0F172A" font-family="Aptos Display, Arial" font-size="22" font-weight="700">Config-driven</text>

  <rect x="396" y="530" width="264" height="76" rx="22" fill="#FFFFFF" stroke="#CBD5E1"/>
  <text x="528" y="562" text-anchor="middle" fill="#0F172A" font-family="Aptos Display, Arial" font-size="22" font-weight="700">Проверенный provider</text>

  <rect x="706" y="530" width="344" height="76" rx="22" fill="#FFFFFF" stroke="#CBD5E1"/>
  <text x="878" y="562" text-anchor="middle" fill="#0F172A" font-family="Aptos Display, Arial" font-size="22" font-weight="700">Fallback-контракт</text>
</svg>
