<svg width="1600" height="460" viewBox="0 0 1600 460" fill="none" xmlns="http://www.w3.org/2000/svg">
  <defs>
    <linearGradient id="bg" x1="80" y1="48" x2="1510" y2="410" gradientUnits="userSpaceOnUse">
      <stop stop-color="#F8FAFC"/>
      <stop offset="1" stop-color="#EEF6FF"/>
    </linearGradient>
    <linearGradient id="hero" x1="60" y1="110" x2="290" y2="330" gradientUnits="userSpaceOnUse">
      <stop stop-color="#2563EB"/>
      <stop offset="1" stop-color="#0EA5E9"/>
    </linearGradient>
    <linearGradient id="lane" x1="330" y1="138" x2="1430" y2="138" gradientUnits="userSpaceOnUse">
      <stop stop-color="#DBEAFE"/>
      <stop offset="1" stop-color="#E0F2FE"/>
    </linearGradient>
    <filter id="shadow" x="0" y="0" width="1600" height="460" filterUnits="userSpaceOnUse" color-interpolation-filters="sRGB">
      <feDropShadow dx="0" dy="10" stdDeviation="18" flood-color="#0F172A" flood-opacity="0.12"/>
    </filter>
  </defs>

  <g filter="url(#shadow)">
    <rect x="24" y="24" width="1552" height="412" rx="32" fill="url(#bg)"/>
  </g>

  <circle cx="154" cy="230" r="88" fill="url(#hero)"/>
  <circle cx="154" cy="230" r="68" fill="white" fill-opacity="0.13"/>
  <path d="M118 235L154 202L190 235" stroke="white" stroke-width="12" stroke-linecap="round" stroke-linejoin="round"/>
  <path d="M128 230V276H180V230" stroke="white" stroke-width="12" stroke-linecap="round" stroke-linejoin="round"/>
  <path d="M148 276V248H164V276" stroke="white" stroke-width="10" stroke-linecap="round" stroke-linejoin="round"/>
  <circle cx="118" cy="175" r="10" fill="white" fill-opacity="0.9"/>
  <circle cx="196" cy="190" r="8" fill="white" fill-opacity="0.72"/>
  <circle cx="206" cy="262" r="7" fill="white" fill-opacity="0.65"/>
  <path d="M126 182L145 205" stroke="white" stroke-width="4" stroke-linecap="round"/>
  <path d="M188 195L170 210" stroke="white" stroke-width="4" stroke-linecap="round"/>

  <text x="286" y="92" fill="#0F172A" font-family="Arial, Helvetica, sans-serif" font-size="30" font-weight="700">
    Workflow запроса
  </text>

  <rect x="286" y="150" width="1220" height="44" rx="22" fill="url(#lane)"/>
  <text x="322" y="178" fill="#1D4ED8" font-family="Arial, Helvetica, sans-serif" font-size="15" font-weight="700">
    UNDERSTAND
  </text>
  <text x="740" y="178" fill="#0369A1" font-family="Arial, Helvetica, sans-serif" font-size="15" font-weight="700">
    SEARCH AND EVALUATE
  </text>
  <text x="1232" y="178" fill="#0F766E" font-family="Arial, Helvetica, sans-serif" font-size="15" font-weight="700">
    DECIDE AND RESPOND
  </text>

  <g font-family="Arial, Helvetica, sans-serif">
    <line x1="410" y1="266" x2="470" y2="266" stroke="#94A3B8" stroke-width="4" stroke-linecap="round"/>
    <line x1="540" y1="266" x2="600" y2="266" stroke="#94A3B8" stroke-width="4" stroke-linecap="round"/>
    <line x1="670" y1="266" x2="730" y2="266" stroke="#94A3B8" stroke-width="4" stroke-linecap="round"/>
    <line x1="800" y1="266" x2="860" y2="266" stroke="#94A3B8" stroke-width="4" stroke-linecap="round"/>
    <line x1="930" y1="266" x2="990" y2="266" stroke="#94A3B8" stroke-width="4" stroke-linecap="round"/>
    <line x1="1060" y1="266" x2="1120" y2="266" stroke="#94A3B8" stroke-width="4" stroke-linecap="round"/>
    <line x1="1190" y1="266" x2="1250" y2="266" stroke="#94A3B8" stroke-width="4" stroke-linecap="round"/>
    <line x1="1320" y1="266" x2="1380" y2="266" stroke="#94A3B8" stroke-width="4" stroke-linecap="round"/>

    <g fill="#94A3B8">
      <path d="M470 266L456 258V274L470 266Z"/>
      <path d="M600 266L586 258V274L600 266Z"/>
      <path d="M730 266L716 258V274L730 266Z"/>
      <path d="M860 266L846 258V274L860 266Z"/>
      <path d="M990 266L976 258V274L990 266Z"/>
      <path d="M1120 266L1106 258V274L1120 266Z"/>
      <path d="M1250 266L1236 258V274L1250 266Z"/>
      <path d="M1380 266L1366 258V274L1380 266Z"/>
    </g>

    <g>
      <rect x="300" y="220" width="110" height="92" rx="24" fill="#EFF6FF" stroke="#93C5FD"/>
      <text x="355" y="253" fill="#1D4ED8" font-size="15" font-weight="700" text-anchor="middle">Routing</text>
      <text x="355" y="280" fill="#475569" font-size="13" text-anchor="middle">intent</text>
      <text x="355" y="297" fill="#475569" font-size="13" text-anchor="middle">classification</text>
    </g>

    <g>
      <rect x="430" y="220" width="110" height="92" rx="24" fill="#EFF6FF" stroke="#93C5FD"/>
      <text x="485" y="253" fill="#1D4ED8" font-size="15" font-weight="700" text-anchor="middle">Intake</text>
      <text x="485" y="280" fill="#475569" font-size="13" text-anchor="middle">requirements</text>
      <text x="485" y="297" fill="#475569" font-size="13" text-anchor="middle">extraction</text>
    </g>

    <g>
      <rect x="560" y="220" width="110" height="92" rx="24" fill="#F0F9FF" stroke="#7DD3FC"/>
      <text x="615" y="253" fill="#0369A1" font-size="15" font-weight="700" text-anchor="middle">RAG</text>
      <text x="615" y="280" fill="#475569" font-size="13" text-anchor="middle">policy and</text>
      <text x="615" y="297" fill="#475569" font-size="13" text-anchor="middle">guardrails</text>
    </g>

    <g>
      <rect x="690" y="220" width="110" height="92" rx="24" fill="#F0F9FF" stroke="#7DD3FC"/>
      <text x="745" y="253" fill="#0369A1" font-size="15" font-weight="700" text-anchor="middle">Districts</text>
      <text x="745" y="280" fill="#475569" font-size="13" text-anchor="middle">area advice</text>
      <text x="745" y="297" fill="#475569" font-size="13" text-anchor="middle">and services</text>
    </g>

    <g>
      <rect x="820" y="220" width="110" height="92" rx="24" fill="#F0F9FF" stroke="#7DD3FC"/>
      <text x="875" y="253" fill="#0369A1" font-size="15" font-weight="700" text-anchor="middle">Listings</text>
      <text x="875" y="280" fill="#475569" font-size="13" text-anchor="middle">database and</text>
      <text x="875" y="297" fill="#475569" font-size="13" text-anchor="middle">MCP search</text>
    </g>

    <g>
      <rect x="950" y="220" width="110" height="92" rx="24" fill="#ECFEFF" stroke="#67E8F9"/>
      <text x="1005" y="253" fill="#0F766E" font-size="15" font-weight="700" text-anchor="middle">Scoring</text>
      <text x="1005" y="280" fill="#475569" font-size="13" text-anchor="middle">ranking and</text>
      <text x="1005" y="297" fill="#475569" font-size="13" text-anchor="middle">cost estimate</text>
    </g>

    <g>
      <rect x="1080" y="220" width="110" height="92" rx="24" fill="#ECFEFF" stroke="#67E8F9"/>
      <text x="1135" y="253" fill="#0F766E" font-size="15" font-weight="700" text-anchor="middle">Verifier</text>
      <text x="1135" y="280" fill="#475569" font-size="13" text-anchor="middle">constraints</text>
      <text x="1135" y="297" fill="#475569" font-size="13" text-anchor="middle">and risks</text>
    </g>

    <g>
      <rect x="1210" y="220" width="110" height="92" rx="24" fill="#F0FDFA" stroke="#5EEAD4"/>
      <text x="1265" y="253" fill="#0F766E" font-size="15" font-weight="700" text-anchor="middle">Replan</text>
      <text x="1265" y="280" fill="#475569" font-size="13" text-anchor="middle">delta from</text>
      <text x="1265" y="297" fill="#475569" font-size="13" text-anchor="middle">previous run</text>
    </g>

    <g>
      <rect x="1340" y="220" width="130" height="92" rx="24" fill="#F0FDFA" stroke="#5EEAD4"/>
      <text x="1405" y="253" fill="#0F766E" font-size="15" font-weight="700" text-anchor="middle">Final Answer</text>
      <text x="1405" y="280" fill="#475569" font-size="13" text-anchor="middle">shortlist, notes,</text>
      <text x="1405" y="297" fill="#475569" font-size="13" text-anchor="middle">clarifications</text>
    </g>
  </g>

  <text x="288" y="360" fill="#64748B" font-family="Arial, Helvetica, sans-serif" font-size="16">
    Эта схема статична. Ниже показана трассировка того, что произошло в текущем запросе.
  </text>
</svg>
